<?xml version="1.0" encoding="UTF-8" standalone="no"?>
<!-- Created with Inkscape (http://www.inkscape.org/) -->

<svg
   width="420"
   height="200"
   viewBox="0 0 111.125 52.916666"
   version="1.1"
   id="svg1"
   xml:space="preserve"
   inkscape:version="1.4.2 (f4327f4, 2025-05-13)"
   sodipodi:docname="logo-dark-ar.svg"
   xmlns:inkscape="http://www.inkscape.org/namespaces/inkscape"
   xmlns:sodipodi="http://sodipodi.sourceforge.net/DTD/sodipodi-0.dtd"
   xmlns="http://www.w3.org/2000/svg"
   xmlns:svg="http://www.w3.org/2000/svg"><sodipodi:namedview
     id="namedview1"
     pagecolor="#ffffff"
     bordercolor="#000000"
     borderopacity="0.25"
     inkscape:showpageshadow="2"
     inkscape:pageopacity="0.0"
     inkscape:pagecheckerboard="0"
     inkscape:deskcolor="#d1d1d1"
     inkscape:document-units="mm"
     inkscape:zoom="0.68862935"
     inkscape:cx="396.43968"
     inkscape:cy="561.25984"
     inkscape:window-width="1920"
     inkscape:window-height="991"
     inkscape:window-x="-9"
     inkscape:window-y="-9"
     inkscape:window-maximized="1"
     inkscape:current-layer="layer1" /><defs
     id="defs1"><style
       id="style1">
      .st0 {
        fill: #231f20;
      }

      .st1 {
        fill: #fff;
      }
    </style></defs><g
     inkscape:label="Layer 1"
     inkscape:groupmode="layer"
     id="layer1"><g
       id="g2"
       transform="matrix(0.46194344,0,0,0.46765454,-81.730248,-170.32079)"><g
         id="g3"><path
           d="m 289.55,417.62 c -1.66,-28.46 -25.27,-51.04 -54.15,-51.04 -28.88,0 -54.25,24.29 -54.25,54.25 0,29.48 25.33,54.11 54.61,54.41 18.01,0.18 36.08,-0.31 54.1,-0.37 z m -86.63,22.3 h -7.97 c -0.45,0 -0.86,-0.25 -1.06,-0.66 -0.2,-0.41 -0.16,-0.88 0.12,-1.24 l 28.94,-38.09 c 0.22,-0.29 0.57,-0.47 0.94,-0.47 h 42.56 c 0.47,0 0.87,0.25 1.07,0.67 0.2,0.42 0.15,0.89 -0.15,1.25 l -4.24,5.26 c -0.23,0.28 -0.56,0.44 -0.92,0.44 h -33.16 c -0.37,0 -0.72,0.17 -0.94,0.47 l -24.25,31.9 c -0.22,0.29 -0.57,0.47 -0.94,0.47 z m 74,-3.6 -5.54,5.54 c -0.22,0.22 -0.49,0.33 -0.79,0.33 -0.63,0 -1.14,-0.51 -1.14,-1.14 0,-0.63 -0.51,-1.13 -1.13,-1.13 h -52.49 c -0.43,0 -0.82,-0.24 -1.01,-0.63 -0.19,-0.39 -0.15,-0.84 0.11,-1.19 l 17.27,-23.06 c 0.21,-0.28 0.55,-0.45 0.91,-0.45 h 22.77 c 0.43,0 0.82,0.24 1.01,0.62 0.19,0.38 0.16,0.84 -0.1,1.18 l -4.37,5.97 c -0.21,0.29 -0.55,0.46 -0.92,0.46 h -13.22 c -0.36,0 -0.71,0.18 -0.92,0.47 l -4.88,6.95 c -0.25,0.35 -0.28,0.79 -0.08,1.17 0.21,0.39 0.58,0.62 1.01,0.62 h 34.82 c 0.62,0 1.13,-0.51 1.13,-1.13 v -0.71 c 0,-0.63 0.51,-1.14 1.14,-1.14 0.28,0 0.56,0.11 0.77,0.31 l 5.63,5.32 c 0.23,0.22 0.35,0.5 0.35,0.81 0,0.31 -0.11,0.6 -0.33,0.82 z"
           id="path1-9" /><path
           class="st1"
           d="m 229.05,407.09 h 33.16 c 0.36,0 0.7,-0.16 0.92,-0.44 l 4.24,-5.26 c 0.29,-0.36 0.35,-0.83 0.15,-1.25 -0.2,-0.42 -0.6,-0.67 -1.07,-0.67 h -42.56 c -0.37,0 -0.72,0.17 -0.94,0.47 l -28.94,38.09 c -0.27,0.36 -0.32,0.84 -0.12,1.24 0.2,0.4 0.61,0.66 1.06,0.66 h 7.97 c 0.37,0 0.72,-0.17 0.94,-0.47 l 24.25,-31.9 c 0.22,-0.29 0.57,-0.47 0.94,-0.47 z"
           id="path2-4" /><path
           class="st1"
           d="m 271.26,429.38 c -0.21,-0.2 -0.49,-0.31 -0.77,-0.31 -0.63,0 -1.14,0.51 -1.14,1.14 v 0.71 c 0,0.63 -0.51,1.13 -1.13,1.13 H 233.4 c -0.43,0 -0.8,-0.23 -1.01,-0.62 -0.2,-0.38 -0.16,-0.82 0.08,-1.17 l 4.88,-6.95 c 0.21,-0.3 0.56,-0.47 0.92,-0.47 h 13.22 c 0.36,0 0.7,-0.17 0.92,-0.46 l 4.37,-5.97 c 0.25,-0.35 0.29,-0.8 0.1,-1.18 -0.19,-0.38 -0.58,-0.62 -1.01,-0.62 H 233.1 c -0.36,0 -0.7,0.17 -0.91,0.45 l -17.27,23.06 c -0.26,0.35 -0.3,0.8 -0.11,1.19 0.19,0.39 0.58,0.63 1.01,0.63 h 52.49 c 0.63,0 1.13,0.51 1.13,1.13 0,0.62 0.51,1.14 1.14,1.14 0.3,0 0.58,-0.12 0.79,-0.33 l 5.54,-5.54 c 0.22,-0.22 0.34,-0.5 0.33,-0.82 -0.01,-0.32 -0.13,-0.59 -0.35,-0.81 l -5.63,-5.32 z"
           id="path3" /></g><g
         id="g19"><path
           class="st0"
           d="m 310.26,432.99 c -0.15,0.02 -0.33,0.03 -0.52,0.03 -1.19,0 -2.43,-0.37 -3.71,-1.11 v 4.13 c 1.37,0.8 2.79,1.2 4.26,1.2 h 0.26 c 1.87,-0.06 3.4,-0.67 4.62,-1.82 1.56,-1.5 2.34,-3.66 2.34,-6.5 v -6.9 c 0,-1.73 -0.48,-3.15 -1.43,-4.26 -1.13,-1.26 -2.68,-1.89 -4.65,-1.89 -1.97,0 -3.49,0.62 -4.68,1.85 -1.32,1.41 -1.98,3.32 -1.98,5.72 0,1.76 0.51,3.25 1.53,4.49 1.21,1.52 2.84,2.28 4.88,2.28 0.56,0 1.08,-0.03 1.56,-0.1 -0.22,1.76 -1.04,2.71 -2.47,2.86 z m 1.2,-6.76 c -1.37,0 -2.05,-0.98 -2.05,-2.93 0,-1.95 0.67,-2.99 2.02,-2.99 0.91,0 1.37,0.53 1.37,1.59 v 3.9 c -0.28,0.28 -0.73,0.42 -1.33,0.42 z"
           id="path4" /><path
           class="st0"
           d="m 329.19,413.55 c 0.72,0 1.29,-0.22 1.72,-0.67 0.43,-0.44 0.65,-1.04 0.65,-1.77 0,-0.73 -0.22,-1.32 -0.65,-1.76 -0.43,-0.43 -1.01,-0.65 -1.72,-0.65 -0.71,0 -1.33,0.22 -1.77,0.65 -0.44,0.43 -0.67,1.02 -0.67,1.76 0,0.74 0.22,1.33 0.67,1.77 0.44,0.44 1.04,0.67 1.77,0.67 z"
           id="path5" /><path
           class="st0"
           d="m 392.19,438.75 c 0.71,0 1.29,-0.22 1.72,-0.67 0.43,-0.44 0.65,-1.04 0.65,-1.77 0,-0.73 -0.22,-1.32 -0.65,-1.76 -0.43,-0.43 -1.01,-0.65 -1.72,-0.65 -0.71,0 -1.33,0.22 -1.77,0.67 -0.44,0.44 -0.67,1.02 -0.67,1.74 0,0.72 0.22,1.3 0.67,1.76 0.44,0.46 1.04,0.68 1.77,0.68 z"
           id="path6" /><path
           class="st0"
           d="m 386.76,433.91 c -0.74,0 -1.33,0.22 -1.77,0.67 -0.44,0.44 -0.67,1.02 -0.67,1.74 0,0.72 0.22,1.3 0.67,1.76 0.44,0.46 1.04,0.68 1.77,0.68 0.73,0 1.29,-0.22 1.74,-0.67 0.44,-0.44 0.67,-1.04 0.67,-1.77 0,-0.73 -0.22,-1.3 -0.67,-1.74 -0.44,-0.44 -1.02,-0.67 -1.74,-0.67 z"
           id="path7" /><path
           class="st0"
           d="m 412.39,417.77 c -1.11,-1.26 -2.65,-1.89 -4.62,-1.89 -1.97,0 -3.49,0.63 -4.68,1.89 -1.32,1.39 -1.98,3.3 -1.98,5.72 0,1.13 0.24,2.15 0.72,3.06 h -6.25 c -0.71,0 -1.21,-0.14 -1.48,-0.42 -0.27,-0.28 -0.41,-0.77 -0.41,-1.46 v -8.2 l -4.72,2.5 v 5.69 c 0,0.69 -0.14,1.18 -0.42,1.46 -0.28,0.28 -0.77,0.42 -1.46,0.42 h -53.67 c -1.13,0 -1.75,-0.44 -1.85,-1.33 v -8.75 l -0.03,0.03 v -0.03 l -4.72,2.5 v 10.28 c 0,1.97 -0.66,3.19 -1.98,3.64 -0.46,0.17 -0.95,0.26 -1.5,0.26 -1.06,0 -2.16,-0.31 -3.29,-0.94 v 4.1 c 1.37,0.76 2.76,1.14 4.2,1.14 1.06,0 2.05,-0.22 2.96,-0.65 2.3,-1.06 3.7,-3.01 4.2,-5.85 0.54,0.11 1.06,0.16 1.56,0.16 h 54.58 c 1.5,0 2.76,-0.37 3.81,-1.11 1,0.74 2.25,1.11 3.77,1.11 h 12.59 c 1.89,0 3.37,-0.56 4.46,-1.69 1.13,-1.15 1.69,-2.66 1.69,-4.52 v -2.86 c 0,-1.73 -0.49,-3.15 -1.46,-4.26 z m -3.25,7.22 c 0,1.04 -0.48,1.56 -1.43,1.56 -1.3,0 -1.95,-1.07 -1.95,-3.22 0,-2.02 0.67,-3.02 2.02,-3.02 0.91,0 1.37,0.53 1.37,1.59 v 3.09 z"
           id="path8" /><path
           class="st0"
           d="m 407.74,414.03 c 0.72,0 1.29,-0.22 1.72,-0.67 0.43,-0.44 0.65,-1.04 0.65,-1.77 0,-0.73 -0.22,-1.32 -0.65,-1.76 -0.43,-0.43 -1.01,-0.65 -1.72,-0.65 -0.71,0 -1.33,0.22 -1.77,0.65 -0.44,0.43 -0.67,1.02 -0.67,1.76 0,0.74 0.22,1.33 0.67,1.77 0.44,0.44 1.04,0.67 1.77,0.67 z"
           id="path9" /><rect
           class="st0"
           x="308.14001"
           y="443.72"
           width="0.85000002"
           height="0.85000002"
           id="rect9" /><rect
           class="st0"
           x="309.67999"
           y="443.72"
           width="0.85000002"
           height="0.85000002"
           id="rect10" /><rect
           class="st0"
           x="314.37"
           y="453.48999"
           width="0.85000002"
           height="0.85000002"
           id="rect11" /><rect
           class="st0"
           x="315.91"
           y="453.48999"
           width="0.85000002"
           height="0.85000002"
           id="rect12" /><rect
           class="st0"
           x="320.70001"
           y="446.28"
           width="0.85000002"
           height="0.85000002"
           id="rect13" /><rect
           class="st0"
           x="319.16"
           y="446.28"
           width="0.85000002"
           height="0.85000002"
           id="rect14" /><path
           class="st0"
           d="m 340.14,447.33 c -0.73,-0.24 -1.43,-0.36 -2.1,-0.36 h -1.22 v 1.77 h 1.16 c 0.61,0 1.22,0.06 1.82,0.19 0.61,0.13 1.12,0.29 1.55,0.48 -0.82,0.44 -1.49,0.74 -2.03,0.91 -0.53,0.17 -1.13,0.25 -1.8,0.25 h -1.65 c -0.31,0 -0.58,-0.11 -0.81,-0.34 -0.23,-0.23 -0.34,-0.56 -0.34,-0.99 v -1.72 h -1.6 v 1.7 c 0,0.4 -0.11,0.72 -0.32,0.97 -0.22,0.25 -0.49,0.37 -0.82,0.37 -0.29,0 -0.51,-0.12 -0.67,-0.35 -0.16,-0.23 -0.24,-0.52 -0.24,-0.85 v -0.86 h -1.6 v 0.85 c 0,0.36 -0.09,0.66 -0.28,0.88 -0.19,0.22 -0.45,0.33 -0.77,0.33 -0.29,0 -0.52,-0.12 -0.68,-0.35 -0.16,-0.23 -0.24,-0.52 -0.24,-0.85 v -0.86 h -1.59 v 0.85 c 0,0.36 -0.1,0.65 -0.3,0.88 -0.2,0.22 -0.45,0.34 -0.77,0.34 h -2.34 c -0.37,0 -0.65,-0.13 -0.86,-0.38 -0.21,-0.25 -0.31,-0.58 -0.31,-0.99 v -0.71 h -1.6 v 0.71 c 0,0.44 -0.11,0.78 -0.33,1.01 -0.22,0.24 -0.5,0.35 -0.84,0.35 h -0.61 c -0.37,0 -0.65,-0.13 -0.86,-0.38 -0.21,-0.25 -0.31,-0.58 -0.31,-0.99 v -0.71 h -1.6 v 0.71 c 0,0.44 -0.11,0.78 -0.33,1.01 -0.22,0.24 -0.5,0.35 -0.84,0.35 h -0.62 c -0.33,0 -0.61,-0.12 -0.83,-0.36 -0.22,-0.24 -0.33,-0.57 -0.33,-1.01 v -3.36 l -1.49,0.07 c -0.64,0.03 -1.22,0.11 -1.74,0.24 -0.52,0.13 -0.96,0.31 -1.32,0.55 -0.37,0.25 -0.65,0.54 -0.84,0.88 -0.19,0.34 -0.29,0.73 -0.29,1.17 0,0.7 0.22,1.26 0.65,1.7 0.43,0.44 1.01,0.66 1.73,0.66 0.3,0 0.62,-0.06 0.97,-0.19 0.35,-0.13 0.63,-0.29 0.86,-0.49 0.08,0.29 0.18,0.56 0.31,0.82 0.12,0.26 0.28,0.49 0.48,0.69 0.2,0.2 0.43,0.37 0.69,0.5 0.27,0.12 0.58,0.19 0.93,0.19 h 1.11 c 0.39,0 0.73,-0.08 1.02,-0.23 0.29,-0.15 0.52,-0.36 0.68,-0.62 0.13,0.22 0.34,0.41 0.65,0.58 0.31,0.17 0.66,0.26 1.07,0.26 h 1.13 c 0.39,0 0.73,-0.08 1.02,-0.23 0.29,-0.15 0.52,-0.36 0.68,-0.62 0.13,0.22 0.34,0.41 0.65,0.58 0.31,0.17 0.66,0.26 1.07,0.26 h 2.6 c 0.41,0 0.76,-0.07 1.08,-0.2 0.31,-0.13 0.57,-0.34 0.78,-0.61 0.14,0.23 0.37,0.43 0.68,0.59 0.31,0.17 0.65,0.25 1.03,0.25 0.45,0 0.83,-0.08 1.15,-0.24 0.32,-0.16 0.56,-0.36 0.72,-0.6 0.15,0.23 0.38,0.43 0.68,0.59 0.3,0.17 0.65,0.25 1.02,0.25 0.44,0 0.85,-0.08 1.21,-0.25 0.36,-0.17 0.61,-0.37 0.74,-0.6 0.12,0.22 0.32,0.41 0.62,0.58 0.3,0.16 0.66,0.24 1.1,0.24 h 1.85 c 0.36,0 0.73,-0.07 1.11,-0.21 0.38,-0.14 0.79,-0.32 1.22,-0.53 0.47,-0.23 0.86,-0.44 1.16,-0.62 0.3,-0.19 0.59,-0.35 0.85,-0.5 l 2.61,-1.48 v -1.56 l -1.65,0.87 c -1.04,-0.61 -1.93,-1.04 -2.66,-1.27 z m -29.51,1.62 c -0.15,0.1 -0.37,0.2 -0.67,0.29 -0.3,0.1 -0.59,0.14 -0.89,0.14 -0.22,0 -0.4,-0.06 -0.54,-0.18 -0.15,-0.12 -0.22,-0.27 -0.22,-0.44 0,-0.37 0.2,-0.64 0.61,-0.82 0.41,-0.18 0.98,-0.3 1.72,-0.37 v 1.38 z"
           id="path14" /><rect
           class="st0"
           x="342.60001"
           y="452.23999"
           width="0.85000002"
           height="0.85000002"
           id="rect15" /><path
           class="st0"
           d="m 357.73,449.22 c 0,0.25 -0.03,0.45 -0.09,0.61 -0.06,0.16 -0.15,0.3 -0.26,0.42 -0.1,0.11 -0.23,0.19 -0.37,0.25 -0.14,0.06 -0.3,0.08 -0.46,0.08 h -0.64 c -0.37,0 -0.65,-0.13 -0.86,-0.38 -0.21,-0.25 -0.31,-0.58 -0.31,-0.99 v -5.48 h -1.6 v 5.48 c 0,0.44 -0.11,0.78 -0.33,1.01 -0.22,0.24 -0.5,0.35 -0.84,0.35 h -0.35 c -0.1,0 -0.26,0 -0.49,-0.01 -0.23,0 -0.37,-0.02 -0.44,-0.03 -0.07,-1.03 -0.35,-1.88 -0.84,-2.53 -0.49,-0.65 -1.09,-0.98 -1.8,-0.98 -0.64,0 -1.18,0.26 -1.63,0.77 -0.45,0.51 -0.68,1.12 -0.68,1.83 0,0.71 0.25,1.26 0.76,1.74 0.51,0.48 1.24,0.78 2.19,0.89 -0.03,0.02 -0.1,0.06 -0.23,0.13 -0.12,0.07 -0.36,0.17 -0.71,0.29 -0.3,0.1 -0.69,0.2 -1.17,0.29 -0.48,0.09 -0.99,0.13 -1.55,0.13 v 1.97 c 0.41,0 0.85,-0.03 1.31,-0.1 0.47,-0.07 0.97,-0.19 1.51,-0.37 0.54,-0.18 1.04,-0.44 1.5,-0.77 0.46,-0.33 0.81,-0.76 1.05,-1.28 0.06,0 0.23,0.02 0.5,0.05 0.13,0.01 0.23,0.01 0.35,0.02 v 0.02 h 0.96 c 0.39,0 0.73,-0.08 1.02,-0.23 0.29,-0.15 0.52,-0.36 0.68,-0.62 0.13,0.22 0.34,0.41 0.65,0.58 0.31,0.17 0.66,0.26 1.07,0.26 h 1.15 c 0.79,0 1.4,-0.32 1.85,-0.96 0.45,-0.64 0.67,-1.46 0.67,-2.47 v -5.48 h -1.6 v 5.48 z m -9.9,0.96 c -0.34,-0.16 -0.5,-0.35 -0.5,-0.58 0,-0.23 0.07,-0.43 0.22,-0.59 0.15,-0.16 0.32,-0.25 0.52,-0.25 0.2,0 0.4,0.15 0.59,0.46 0.19,0.3 0.31,0.72 0.36,1.24 -0.46,-0.03 -0.85,-0.12 -1.19,-0.28 z"
           id="path15" /><rect
           class="st0"
           x="361.19"
           y="443.75"
           width="1.59"
           height="8.9300003"
           id="rect16" /><rect
           class="st0"
           x="371.5"
           y="445.92999"
           width="0.85000002"
           height="0.85000002"
           id="rect17" /><path
           class="st0"
           d="m 377.27,447.68 h -1.57 v 0.06 c 0.02,0.11 0.05,0.31 0.09,0.61 0.04,0.29 0.06,0.59 0.06,0.9 0,0.44 -0.27,0.77 -0.82,1.02 -0.54,0.24 -1.31,0.36 -2.3,0.36 -0.99,0 -1.77,-0.12 -2.3,-0.36 -0.54,-0.24 -0.81,-0.58 -0.81,-1.02 0,-0.24 0.02,-0.52 0.06,-0.85 0.04,-0.33 0.07,-0.54 0.09,-0.66 v -0.06 h -1.57 c 0,0 -0.04,0.24 -0.1,0.57 -0.05,0.34 -0.08,0.69 -0.08,1.06 0,1.06 0.38,1.88 1.15,2.48 0.77,0.6 1.95,0.9 3.55,0.9 1.6,0 2.79,-0.3 3.56,-0.89 0.78,-0.59 1.17,-1.42 1.17,-2.5 0,-0.26 -0.03,-0.56 -0.08,-0.92 -0.05,-0.36 -0.09,-0.59 -0.11,-0.71 z"
           id="path17" /><rect
           class="st0"
           x="373.04001"
           y="445.92999"
           width="0.85000002"
           height="0.85000002"
           id="rect18" /><path
           class="st0"
           d="m 387.64,448.02 c -0.25,-0.25 -0.54,-0.44 -0.88,-0.59 -0.34,-0.14 -0.69,-0.21 -1.06,-0.21 -0.67,0 -1.21,0.23 -1.63,0.69 -0.42,0.46 -0.65,1.05 -0.69,1.77 -0.02,0.24 -0.07,0.45 -0.17,0.63 -0.1,0.18 -0.27,0.27 -0.53,0.27 h -0.78 c -0.17,0 -0.32,-0.03 -0.46,-0.09 -0.14,-0.06 -0.26,-0.14 -0.37,-0.25 -0.1,-0.11 -0.19,-0.25 -0.25,-0.42 -0.07,-0.17 -0.1,-0.37 -0.1,-0.61 v -5.48 h -1.59 v 5.48 c 0,1.03 0.23,1.86 0.68,2.49 0.45,0.63 1.06,0.94 1.84,0.94 h 1.01 c 0.38,0 0.7,-0.05 0.96,-0.14 0.26,-0.1 0.5,-0.24 0.73,-0.43 0.24,0.21 0.51,0.37 0.82,0.49 0.31,0.12 0.63,0.17 0.96,0.17 0.68,0 1.24,-0.24 1.7,-0.71 0.45,-0.48 0.68,-1.08 0.68,-1.82 0,-0.46 -0.08,-0.88 -0.24,-1.25 -0.16,-0.37 -0.37,-0.68 -0.63,-0.94 z m -0.97,2.47 c -0.16,0.13 -0.36,0.19 -0.61,0.19 -0.31,0 -0.57,-0.09 -0.78,-0.27 -0.21,-0.18 -0.32,-0.39 -0.32,-0.63 0,-0.24 0.08,-0.43 0.23,-0.59 0.15,-0.16 0.35,-0.24 0.58,-0.24 0.29,0 0.55,0.1 0.78,0.3 0.23,0.2 0.34,0.44 0.34,0.71 0,0.22 -0.08,0.39 -0.23,0.52 z"
           id="path18" /><rect
           class="st0"
           x="400.42999"
           y="444.73999"
           width="0.85000002"
           height="0.85000002"
           id="rect19" /><path
           class="st0"
           d="m 410.84,449.22 c 0,0.25 -0.03,0.45 -0.09,0.61 -0.06,0.16 -0.15,0.3 -0.26,0.42 -0.1,0.11 -0.23,0.19 -0.37,0.25 -0.14,0.06 -0.29,0.08 -0.46,0.08 h -0.64 c -0.37,0 -0.65,-0.13 -0.86,-0.38 -0.21,-0.25 -0.31,-0.58 -0.31,-0.99 v -5.48 h -1.6 v 5.48 c 0,0.44 -0.11,0.78 -0.33,1.01 -0.22,0.24 -0.5,0.35 -0.84,0.35 h -2.3 c -0.14,0 -0.26,-0.01 -0.34,-0.03 -0.08,-0.02 -0.17,-0.06 -0.26,-0.11 l 2.01,-1.14 v -1.56 l -1.65,0.87 c -1.02,-0.6 -1.89,-1.02 -2.62,-1.26 -0.73,-0.24 -1.45,-0.37 -2.14,-0.37 h -1.22 v 1.77 h 1.16 c 0.61,0 1.22,0.06 1.82,0.19 0.61,0.13 1.12,0.29 1.55,0.48 -0.68,0.37 -1.29,0.66 -1.85,0.86 -0.56,0.2 -1.21,0.3 -1.97,0.3 h -1.95 c -0.14,0 -0.26,-0.03 -0.36,-0.1 -0.1,-0.07 -0.18,-0.16 -0.25,-0.28 -0.06,-0.1 -0.13,-0.25 -0.2,-0.46 -0.07,-0.2 -0.14,-0.4 -0.19,-0.58 l -0.89,-3.09 h -1.78 l 1.08,3.65 c 0.02,0.07 0.04,0.14 0.06,0.21 0.02,0.07 0.03,0.12 0.03,0.16 0,0.13 -0.09,0.24 -0.28,0.34 -0.19,0.1 -0.42,0.15 -0.71,0.15 h -2.04 v 2.07 h 1.97 c 0.36,0 0.67,-0.06 0.94,-0.18 0.27,-0.12 0.5,-0.33 0.67,-0.62 0.14,0.27 0.33,0.47 0.57,0.6 0.24,0.13 0.55,0.2 0.92,0.2 h 2.37 c 0.5,0 1.09,-0.16 1.79,-0.48 0.7,-0.32 1.37,-0.68 2.02,-1.07 0.03,0.55 0.22,0.95 0.54,1.19 0.33,0.24 0.81,0.36 1.44,0.36 h 2.31 c 0.39,0 0.73,-0.08 1.02,-0.23 0.29,-0.15 0.52,-0.36 0.68,-0.62 0.13,0.22 0.34,0.41 0.65,0.58 0.31,0.17 0.66,0.26 1.07,0.26 h 1.15 c 0.79,0 1.4,-0.32 1.85,-0.96 0.45,-0.64 0.67,-1.46 0.67,-2.47 v -5.48 h -1.6 v 5.48 z"
           id="path19" /></g></g></g></svg>
